<?xml version="1.0" encoding="UTF-8" standalone="no"?>
<!DOCTYPE svg PUBLIC "-//W3C//DTD SVG 1.1//EN"
 "http://www.w3.org/Graphics/SVG/1.1/DTD/svg11.dtd">
<!-- Generated by graphviz version 2.43.0 (0)
 -->
<!-- Title: Architecture Pages: 1 -->
<svg width="467pt" height="186pt"
 viewBox="0.00 0.00 467.00 186.00" xmlns="http://www.w3.org/2000/svg" xmlns:xlink="http://www.w3.org/1999/xlink">
<g id="graph0" class="graph" transform="scale(1 1) rotate(0) translate(4 182)">
<title>Architecture</title>
<polygon fill="white" stroke="transparent" points="-4,4 -4,-182 463,-182 463,4 -4,4"/>
<g id="clust1" class="cluster">
<title>cluster_uPtt</title>
<polygon fill="none" stroke="black" points="8,-8 8,-85 445,-85 445,-8 8,-8"/>
<text text-anchor="middle" x="226.5" y="-69.8" font-family="Times,serif" font-size="14.00">uPtt</text>
</g>
<g id="clust2" class="cluster">
<title>cluster_backend</title>
<polygon fill="none" stroke="black" points="8,-93 8,-170 266,-170 266,-93 8,-93"/>
<text text-anchor="middle" x="137" y="-154.8" font-family="Times,serif" font-size="14.00">Backend</text>
</g>
<g id="clust3" class="cluster">
<title>cluster_frontend</title>
<polygon fill="none" stroke="black" points="274,-93 274,-170 451,-170 451,-93 274,-93"/>
<text text-anchor="middle" x="362.5" y="-154.8" font-family="Times,serif" font-size="14.00">Frontend</text>
</g>
<!-- PTT_backend -->
<g id="node1" class="node">
<title>PTT_backend</title>
<polygon fill="lightgray" stroke="lightgray" points="258,-54 182,-54 182,-16 258,-16 258,-54"/>
<text text-anchor="middle" x="220" y="-38.8" font-family="Times,serif" font-size="14.00">PTT</text>
<text text-anchor="middle" x="220" y="-23.8" font-family="Times,serif" font-size="14.00">backend</text>
</g>
<!-- MQ_server -->
<g id="node2" class="node">
<title>MQ_server</title>
<polygon fill="lightgray" stroke="lightgray" points="164,-54 102,-54 102,-16 164,-16 164,-54"/>
<text text-anchor="middle" x="133" y="-38.8" font-family="Times,serif" font-size="14.00">MQ</text>
<text text-anchor="middle" x="133" y="-23.8" font-family="Times,serif" font-size="14.00">server</text>
</g>
<!-- system_tray -->
<g id="node3" class="node">
<title>system_tray</title>
<polygon fill="lightgray" stroke="lightgray" points="84,-54 16,-54 16,-16 84,-16 84,-54"/>
<text text-anchor="middle" x="50" y="-38.8" font-family="Times,serif" font-size="14.00">system</text>
<text text-anchor="middle" x="50" y="-23.8" font-family="Times,serif" font-size="14.00">tray</text>
</g>
<!-- chat_window -->
<g id="node4" class="node">
<title>chat_window</title>
<polygon fill="lightgray" stroke="lightgray" points="347.5,-54 276.5,-54 276.5,-16 347.5,-16 347.5,-54"/>
<text text-anchor="middle" x="312" y="-38.8" font-family="Times,serif" font-size="14.00">chat</text>
<text text-anchor="middle" x="312" y="-23.8" font-family="Times,serif" font-size="14.00">window</text>
</g>
<!-- login_window -->
<g id="node5" class="node">
<title>login_window</title>
<polygon fill="lightgray" stroke="lightgray" points="436.5,-54 365.5,-54 365.5,-16 436.5,-16 436.5,-54"/>
<text text-anchor="middle" x="401" y="-38.8" font-family="Times,serif" font-size="14.00">login</text>
<text text-anchor="middle" x="401" y="-23.8" font-family="Times,serif" font-size="14.00">window</text>
</g>
<!-- PTT_backend_ext -->
<g id="node6" class="node">
<title>PTT_backend_ext</title>
<polygon fill="lightgreen" stroke="lightgreen" points="258,-139 182,-139 182,-101 258,-101 258,-139"/>
<text text-anchor="middle" x="220" y="-123.8" font-family="Times,serif" font-size="14.00">PTT</text>
<text text-anchor="middle" x="220" y="-108.8" font-family="Times,serif" font-size="14.00">backend</text>
</g>
<!-- PTT_backend_ext&#45;&gt;PTT_backend -->
<g id="edge1" class="edge">
<title>PTT_backend_ext&#45;&gt;PTT_backend</title>
<path fill="none" stroke="black" d="M220,-100.99C220,-90.3 220,-76.5 220,-64.37"/>
<polygon fill="black" stroke="black" points="223.5,-64.26 220,-54.26 216.5,-64.26 223.5,-64.26"/>
</g>
<!-- MQ_server_ext -->
<g id="node7" class="node">
<title>MQ_server_ext</title>
<polygon fill="lightgreen" stroke="lightgreen" points="164,-139 102,-139 102,-101 164,-101 164,-139"/>
<text text-anchor="middle" x="133" y="-123.8" font-family="Times,serif" font-size="14.00">MQ</text>
<text text-anchor="middle" x="133" y="-108.8" font-family="Times,serif" font-size="14.00">server</text>
</g>
<!-- MQ_server_ext&#45;&gt;MQ_server -->
<g id="edge2" class="edge">
<title>MQ_server_ext&#45;&gt;MQ_server</title>
<path fill="none" stroke="black" d="M133,-100.99C133,-90.3 133,-76.5 133,-64.37"/>
<polygon fill="black" stroke="black" points="136.5,-64.26 133,-54.26 129.5,-64.26 136.5,-64.26"/>
</g>
<!-- system_tray_ext -->
<g id="node8" class="node">
<title>system_tray_ext</title>
<polygon fill="lightgreen" stroke="lightgreen" points="84,-139 16,-139 16,-101 84,-101 84,-139"/>
<text text-anchor="middle" x="50" y="-123.8" font-family="Times,serif" font-size="14.00">system</text>
<text text-anchor="middle" x="50" y="-108.8" font-family="Times,serif" font-size="14.00">tray</text>
</g>
<!-- system_tray_ext&#45;&gt;system_tray -->
<g id="edge3" class="edge">
<title>system_tray_ext&#45;&gt;system_tray</title>
<path fill="none" stroke="black" d="M50,-100.99C50,-90.3 50,-76.5 50,-64.37"/>
<polygon fill="black" stroke="black" points="53.5,-64.26 50,-54.26 46.5,-64.26 53.5,-64.26"/>
</g>
<!-- chat_window_ext -->
<g id="node9" class="node">
<title>chat_window_ext</title>
<polygon fill="orange" stroke="orange" points="353.5,-139 282.5,-139 282.5,-101 353.5,-101 353.5,-139"/>
<text text-anchor="middle" x="318" y="-123.8" font-family="Times,serif" font-size="14.00">chat</text>
<text text-anchor="middle" x="318" y="-108.8" font-family="Times,serif" font-size="14.00">window</text>
</g>
<!-- chat_window_ext&#45;&gt;chat_window -->
<g id="edge4" class="edge">
<title>chat_window_ext&#45;&gt;chat_window</title>
<path fill="none" stroke="black" d="M316.7,-100.99C315.93,-90.3 314.93,-76.5 314.05,-64.37"/>
<polygon fill="black" stroke="black" points="317.53,-63.98 313.32,-54.26 310.55,-64.49 317.53,-63.98"/>
</g>
<!-- login_window_ext -->
<g id="node10" class="node">
<title>login_window_ext</title>
<polygon fill="orange" stroke="orange" points="442.5,-139 371.5,-139 371.5,-101 442.5,-101 442.5,-139"/>
<text text-anchor="middle" x="407" y="-123.8" font-family="Times,serif" font-size="14.00">login</text>
<text text-anchor="middle" x="407" y="-108.8" font-family="Times,serif" font-size="14.00">window</text>
</g>
<!-- login_window_ext&#45;&gt;login_window -->
<g id="edge5" class="edge">
<title>login_window_ext&#45;&gt;login_window</title>
<path fill="none" stroke="black" d="M405.7,-100.99C404.93,-90.3 403.93,-76.5 403.05,-64.37"/>
<polygon fill="black" stroke="black" points="406.53,-63.98 402.32,-54.26 399.55,-64.49 406.53,-63.98"/>
</g>
</g>
</svg>
