<?xml version="1.0" encoding="UTF-8" standalone="no"?>
<!DOCTYPE svg PUBLIC "-//W3C//DTD SVG 1.1//EN"
 "http://www.w3.org/Graphics/SVG/1.1/DTD/svg11.dtd">
<!-- Generated by graphviz version 2.43.0 (0)
 -->
<!-- Title: Architecture Pages: 1 -->
<svg width="601pt" height="116pt"
 viewBox="0.00 0.00 601.00 116.00" xmlns="http://www.w3.org/2000/svg" xmlns:xlink="http://www.w3.org/1999/xlink">
<g id="graph0" class="graph" transform="scale(1 1) rotate(0) translate(4 112)">
<title>Architecture</title>
<polygon fill="white" stroke="transparent" points="-4,4 -4,-112 597,-112 597,4 -4,4"/>
<!-- Message Queue -->
<g id="node1" class="node">
<title>Message Queue</title>
<polygon fill="lightgrey" stroke="black" points="522.5,-36 54.5,-36 54.5,0 522.5,0 522.5,-36"/>
<text text-anchor="middle" x="288.5" y="-14.3" font-family="Times,serif" font-size="14.00">Message Queue</text>
</g>
<!-- PTT backend -->
<g id="node2" class="node">
<title>PTT backend</title>
<path fill="none" stroke="black" d="M97,-108C97,-108 12,-108 12,-108 6,-108 0,-102 0,-96 0,-96 0,-84 0,-84 0,-78 6,-72 12,-72 12,-72 97,-72 97,-72 103,-72 109,-78 109,-84 109,-84 109,-96 109,-96 109,-102 103,-108 97,-108"/>
<text text-anchor="middle" x="54.5" y="-86.3" font-family="Times,serif" font-size="14.00">PTT backend</text>
</g>
<!-- PTT backend&#45;&gt;Message Queue -->
<g id="edge1" class="edge">
<title>PTT backend&#45;&gt;Message Queue</title>
<path fill="none" stroke="black" d="M109.07,-72.68C142.64,-62.63 185.92,-49.69 221.56,-39.02"/>
<polygon fill="black" stroke="black" points="222.82,-42.3 231.4,-36.08 220.81,-35.59 222.82,-42.3"/>
</g>
<!-- MQ server -->
<g id="node3" class="node">
<title>MQ server</title>
<path fill="none" stroke="black" d="M207.5,-108C207.5,-108 139.5,-108 139.5,-108 133.5,-108 127.5,-102 127.5,-96 127.5,-96 127.5,-84 127.5,-84 127.5,-78 133.5,-72 139.5,-72 139.5,-72 207.5,-72 207.5,-72 213.5,-72 219.5,-78 219.5,-84 219.5,-84 219.5,-96 219.5,-96 219.5,-102 213.5,-108 207.5,-108"/>
<text text-anchor="middle" x="173.5" y="-86.3" font-family="Times,serif" font-size="14.00">MQ server</text>
</g>
<!-- MQ server&#45;&gt;Message Queue -->
<g id="edge2" class="edge">
<title>MQ server&#45;&gt;Message Queue</title>
<path fill="none" stroke="black" d="M201.63,-71.88C216.67,-62.72 235.37,-51.34 251.56,-41.48"/>
<polygon fill="black" stroke="black" points="253.54,-44.38 260.26,-36.19 249.9,-38.4 253.54,-44.38"/>
</g>
<!-- system tray -->
<g id="node4" class="node">
<title>system tray</title>
<path fill="none" stroke="black" d="M327,-108C327,-108 250,-108 250,-108 244,-108 238,-102 238,-96 238,-96 238,-84 238,-84 238,-78 244,-72 250,-72 250,-72 327,-72 327,-72 333,-72 339,-78 339,-84 339,-84 339,-96 339,-96 339,-102 333,-108 327,-108"/>
<text text-anchor="middle" x="288.5" y="-86.3" font-family="Times,serif" font-size="14.00">system tray</text>
</g>
<!-- system tray&#45;&gt;Message Queue -->
<g id="edge3" class="edge">
<title>system tray&#45;&gt;Message Queue</title>
<path fill="none" stroke="black" d="M288.5,-71.7C288.5,-63.98 288.5,-54.71 288.5,-46.11"/>
<polygon fill="black" stroke="black" points="292,-46.1 288.5,-36.1 285,-46.1 292,-46.1"/>
</g>
<!-- login window -->
<g id="node5" class="node">
<title>login window</title>
<path fill="none" stroke="black" d="M456,-108C456,-108 369,-108 369,-108 363,-108 357,-102 357,-96 357,-96 357,-84 357,-84 357,-78 363,-72 369,-72 369,-72 456,-72 456,-72 462,-72 468,-78 468,-84 468,-84 468,-96 468,-96 468,-102 462,-108 456,-108"/>
<text text-anchor="middle" x="412.5" y="-86.3" font-family="Times,serif" font-size="14.00">login window</text>
</g>
<!-- login window&#45;&gt;Message Queue -->
<g id="edge4" class="edge">
<title>login window&#45;&gt;Message Queue</title>
<path fill="none" stroke="black" d="M382.17,-71.88C365.8,-62.64 345.42,-51.13 327.85,-41.21"/>
<polygon fill="black" stroke="black" points="329.38,-38.06 318.95,-36.19 325.94,-44.15 329.38,-38.06"/>
</g>
<!-- chat window -->
<g id="node6" class="node">
<title>chat window</title>
<path fill="none" stroke="black" d="M581,-108C581,-108 498,-108 498,-108 492,-108 486,-102 486,-96 486,-96 486,-84 486,-84 486,-78 492,-72 498,-72 498,-72 581,-72 581,-72 587,-72 593,-78 593,-84 593,-84 593,-96 593,-96 593,-102 587,-108 581,-108"/>
<text text-anchor="middle" x="539.5" y="-86.3" font-family="Times,serif" font-size="14.00">chat window</text>
</g>
<!-- chat window&#45;&gt;Message Queue -->
<g id="edge5" class="edge">
<title>chat window&#45;&gt;Message Queue</title>
<path fill="none" stroke="black" d="M485.96,-74.07C449.12,-63.79 399.78,-50.03 359.63,-38.84"/>
<polygon fill="black" stroke="black" points="360.48,-35.44 349.9,-36.12 358.6,-42.18 360.48,-35.44"/>
</g>
</g>
</svg>
