<?xml version="1.0" encoding="UTF-8" standalone="no"?>
<!DOCTYPE svg PUBLIC "-//W3C//DTD SVG 1.1//EN"
 "http://www.w3.org/Graphics/SVG/1.1/DTD/svg11.dtd">
<!-- Generated by graphviz version 2.43.0 (0)
 -->
<!-- Title: Architecture Pages: 1 -->
<svg width="476pt" height="118pt"
 viewBox="0.00 0.00 476.00 118.00" xmlns="http://www.w3.org/2000/svg" xmlns:xlink="http://www.w3.org/1999/xlink">
<g id="graph0" class="graph" transform="scale(1 1) rotate(0) translate(4 114)">
<title>Architecture</title>
<polygon fill="white" stroke="transparent" points="-4,4 -4,-114 472,-114 472,4 -4,4"/>
<!-- Message Queue -->
<g id="node1" class="node">
<title>Message Queue</title>
<polygon fill="lightgrey" stroke="black" points="468,-36 0,-36 0,0 468,0 468,-36"/>
<text text-anchor="middle" x="234" y="-14.3" font-family="Times,serif" font-size="14.00">Message Queue</text>
</g>
<!-- PTT_backend -->
<g id="node2" class="node">
<title>PTT_backend</title>
<polygon fill="palegreen" stroke="palegreen" points="102,-110 26,-110 26,-72 102,-72 102,-110"/>
<text text-anchor="middle" x="64" y="-94.8" font-family="Times,serif" font-size="14.00">PTT</text>
<text text-anchor="middle" x="64" y="-79.8" font-family="Times,serif" font-size="14.00">backend</text>
</g>
<!-- PTT_backend&#45;&gt;Message Queue -->
<g id="edge1" class="edge">
<title>PTT_backend&#45;&gt;Message Queue</title>
<path fill="none" stroke="black" d="M102.15,-74.07C126.21,-64.02 157.56,-50.92 183.66,-40.03"/>
<polygon fill="black" stroke="black" points="185.13,-43.2 193.01,-36.12 182.43,-36.74 185.13,-43.2"/>
</g>
<!-- MQ_server -->
<g id="node3" class="node">
<title>MQ_server</title>
<polygon fill="khaki" stroke="khaki" points="182,-110 120,-110 120,-72 182,-72 182,-110"/>
<text text-anchor="middle" x="151" y="-94.8" font-family="Times,serif" font-size="14.00">MQ</text>
<text text-anchor="middle" x="151" y="-79.8" font-family="Times,serif" font-size="14.00">server</text>
</g>
<!-- MQ_server&#45;&gt;Message Queue -->
<g id="edge2" class="edge">
<title>MQ_server&#45;&gt;Message Queue</title>
<path fill="none" stroke="black" d="M172.37,-71.72C182.73,-62.85 195.3,-52.11 206.37,-42.63"/>
<polygon fill="black" stroke="black" points="208.8,-45.16 214.12,-36 204.25,-39.84 208.8,-45.16"/>
</g>
<!-- system_tray -->
<g id="node4" class="node">
<title>system_tray</title>
<polygon fill="lightskyblue" stroke="lightskyblue" points="268,-110 200,-110 200,-72 268,-72 268,-110"/>
<text text-anchor="middle" x="234" y="-94.8" font-family="Times,serif" font-size="14.00">system</text>
<text text-anchor="middle" x="234" y="-79.8" font-family="Times,serif" font-size="14.00">tray</text>
</g>
<!-- system_tray&#45;&gt;Message Queue -->
<g id="edge3" class="edge">
<title>system_tray&#45;&gt;Message Queue</title>
<path fill="none" stroke="black" d="M234,-71.72C234,-63.97 234,-54.79 234,-46.27"/>
<polygon fill="black" stroke="black" points="237.5,-46 234,-36 230.5,-46 237.5,-46"/>
</g>
<!-- chat_window -->
<g id="node5" class="node">
<title>chat_window</title>
<polygon fill="sandybrown" stroke="sandybrown" points="357.5,-110 286.5,-110 286.5,-72 357.5,-72 357.5,-110"/>
<text text-anchor="middle" x="322" y="-94.8" font-family="Times,serif" font-size="14.00">chat</text>
<text text-anchor="middle" x="322" y="-79.8" font-family="Times,serif" font-size="14.00">window</text>
</g>
<!-- chat_window&#45;&gt;Message Queue -->
<g id="edge5" class="edge">
<title>chat_window&#45;&gt;Message Queue</title>
<path fill="none" stroke="black" d="M299.34,-71.72C288.25,-62.77 274.77,-51.9 262.95,-42.36"/>
<polygon fill="black" stroke="black" points="265.06,-39.56 255.07,-36 260.66,-45.01 265.06,-39.56"/>
</g>
<!-- login_window -->
<g id="node6" class="node">
<title>login_window</title>
<polygon fill="lightpink" stroke="lightpink" points="446.5,-110 375.5,-110 375.5,-72 446.5,-72 446.5,-110"/>
<text text-anchor="middle" x="411" y="-94.8" font-family="Times,serif" font-size="14.00">login</text>
<text text-anchor="middle" x="411" y="-79.8" font-family="Times,serif" font-size="14.00">window</text>
</g>
<!-- login_window&#45;&gt;Message Queue -->
<g id="edge4" class="edge">
<title>login_window&#45;&gt;Message Queue</title>
<path fill="none" stroke="black" d="M375.47,-75.43C372.61,-74.27 369.76,-73.11 367,-72 340.55,-61.32 311.08,-49.56 286.62,-39.84"/>
<polygon fill="black" stroke="black" points="287.75,-36.52 277.17,-36.09 285.17,-43.03 287.75,-36.52"/>
</g>
</g>
</svg>
