<?xml version="1.0" encoding="UTF-8" standalone="no"?>
<!DOCTYPE svg PUBLIC "-//W3C//DTD SVG 1.1//EN"
 "http://www.w3.org/Graphics/SVG/1.1/DTD/svg11.dtd">
<!-- Generated by graphviz version 2.43.0 (0)
 -->
<!-- Title: Architecture Pages: 1 -->
<svg width="461pt" height="139pt"
 viewBox="0.00 0.00 461.00 139.00" xmlns="http://www.w3.org/2000/svg" xmlns:xlink="http://www.w3.org/1999/xlink">
<g id="graph0" class="graph" transform="scale(1 1) rotate(0) translate(4 135)">
<title>Architecture</title>
<polygon fill="white" stroke="transparent" points="-4,4 -4,-135 457,-135 457,4 -4,4"/>
<g id="clust1" class="cluster">
<title>cluster_uPtt</title>
<polygon fill="none" stroke="black" points="8,-8 8,-85 445,-85 445,-8 8,-8"/>
<text text-anchor="middle" x="226.5" y="-69.8" font-family="Times,serif" font-size="14.00">uPtt</text>
</g>
<!-- PTT_backend -->
<g id="node1" class="node">
<title>PTT_backend</title>
<polygon fill="palegreen" stroke="palegreen" points="92,-54 16,-54 16,-16 92,-16 92,-54"/>
<text text-anchor="middle" x="54" y="-38.8" font-family="Times,serif" font-size="14.00">PTT</text>
<text text-anchor="middle" x="54" y="-23.8" font-family="Times,serif" font-size="14.00">backend</text>
</g>
<!-- MQ_server -->
<g id="node2" class="node">
<title>MQ_server</title>
<polygon fill="khaki" stroke="khaki" points="172,-54 110,-54 110,-16 172,-16 172,-54"/>
<text text-anchor="middle" x="141" y="-38.8" font-family="Times,serif" font-size="14.00">MQ</text>
<text text-anchor="middle" x="141" y="-23.8" font-family="Times,serif" font-size="14.00">server</text>
</g>
<!-- system_tray -->
<g id="node3" class="node">
<title>system_tray</title>
<polygon fill="lightskyblue" stroke="lightskyblue" points="258,-54 190,-54 190,-16 258,-16 258,-54"/>
<text text-anchor="middle" x="224" y="-38.8" font-family="Times,serif" font-size="14.00">system</text>
<text text-anchor="middle" x="224" y="-23.8" font-family="Times,serif" font-size="14.00">tray</text>
</g>
<!-- chat_window -->
<g id="node4" class="node">
<title>chat_window</title>
<polygon fill="sandybrown" stroke="sandybrown" points="347.5,-54 276.5,-54 276.5,-16 347.5,-16 347.5,-54"/>
<text text-anchor="middle" x="312" y="-38.8" font-family="Times,serif" font-size="14.00">chat</text>
<text text-anchor="middle" x="312" y="-23.8" font-family="Times,serif" font-size="14.00">window</text>
</g>
<!-- login_window -->
<g id="node5" class="node">
<title>login_window</title>
<polygon fill="lightpink" stroke="lightpink" points="436.5,-54 365.5,-54 365.5,-16 436.5,-16 436.5,-54"/>
<text text-anchor="middle" x="401" y="-38.8" font-family="Times,serif" font-size="14.00">login</text>
<text text-anchor="middle" x="401" y="-23.8" font-family="Times,serif" font-size="14.00">window</text>
</g>
<!-- PTT_backend_ext -->
<g id="node6" class="node">
<title>PTT_backend_ext</title>
<polygon fill="palegreen" stroke="palegreen" points="92,-131 16,-131 16,-93 92,-93 92,-131"/>
<text text-anchor="middle" x="54" y="-115.8" font-family="Times,serif" font-size="14.00">PTT</text>
<text text-anchor="middle" x="54" y="-100.8" font-family="Times,serif" font-size="14.00">backend</text>
</g>
<!-- PTT_backend_ext&#45;&gt;PTT_backend -->
<g id="edge1" class="edge">
<title>PTT_backend_ext&#45;&gt;PTT_backend</title>
<path fill="none" stroke="black" d="M54,-92.84C54,-84.34 54,-74.01 54,-64.5"/>
<polygon fill="black" stroke="black" points="57.5,-64.25 54,-54.25 50.5,-64.25 57.5,-64.25"/>
</g>
<!-- MQ_server_ext -->
<g id="node7" class="node">
<title>MQ_server_ext</title>
<polygon fill="khaki" stroke="khaki" points="172,-131 110,-131 110,-93 172,-93 172,-131"/>
<text text-anchor="middle" x="141" y="-115.8" font-family="Times,serif" font-size="14.00">MQ</text>
<text text-anchor="middle" x="141" y="-100.8" font-family="Times,serif" font-size="14.00">server</text>
</g>
<!-- MQ_server_ext&#45;&gt;MQ_server -->
<g id="edge2" class="edge">
<title>MQ_server_ext&#45;&gt;MQ_server</title>
<path fill="none" stroke="black" d="M141,-92.84C141,-84.34 141,-74.01 141,-64.5"/>
<polygon fill="black" stroke="black" points="144.5,-64.25 141,-54.25 137.5,-64.25 144.5,-64.25"/>
</g>
<!-- system_tray_ext -->
<g id="node8" class="node">
<title>system_tray_ext</title>
<polygon fill="lightskyblue" stroke="lightskyblue" points="258,-131 190,-131 190,-93 258,-93 258,-131"/>
<text text-anchor="middle" x="224" y="-115.8" font-family="Times,serif" font-size="14.00">system</text>
<text text-anchor="middle" x="224" y="-100.8" font-family="Times,serif" font-size="14.00">tray</text>
</g>
<!-- system_tray_ext&#45;&gt;system_tray -->
<g id="edge3" class="edge">
<title>system_tray_ext&#45;&gt;system_tray</title>
<path fill="none" stroke="black" d="M224,-92.84C224,-84.34 224,-74.01 224,-64.5"/>
<polygon fill="black" stroke="black" points="227.5,-64.25 224,-54.25 220.5,-64.25 227.5,-64.25"/>
</g>
<!-- chat_window_ext -->
<g id="node9" class="node">
<title>chat_window_ext</title>
<polygon fill="sandybrown" stroke="sandybrown" points="347.5,-131 276.5,-131 276.5,-93 347.5,-93 347.5,-131"/>
<text text-anchor="middle" x="312" y="-115.8" font-family="Times,serif" font-size="14.00">chat</text>
<text text-anchor="middle" x="312" y="-100.8" font-family="Times,serif" font-size="14.00">window</text>
</g>
<!-- chat_window_ext&#45;&gt;chat_window -->
<g id="edge4" class="edge">
<title>chat_window_ext&#45;&gt;chat_window</title>
<path fill="none" stroke="black" d="M312,-92.84C312,-84.34 312,-74.01 312,-64.5"/>
<polygon fill="black" stroke="black" points="315.5,-64.25 312,-54.25 308.5,-64.25 315.5,-64.25"/>
</g>
<!-- login_window_ext -->
<g id="node10" class="node">
<title>login_window_ext</title>
<polygon fill="lightpink" stroke="lightpink" points="436.5,-131 365.5,-131 365.5,-93 436.5,-93 436.5,-131"/>
<text text-anchor="middle" x="401" y="-115.8" font-family="Times,serif" font-size="14.00">login</text>
<text text-anchor="middle" x="401" y="-100.8" font-family="Times,serif" font-size="14.00">window</text>
</g>
<!-- login_window_ext&#45;&gt;login_window -->
<g id="edge5" class="edge">
<title>login_window_ext&#45;&gt;login_window</title>
<path fill="none" stroke="black" d="M401,-92.84C401,-84.34 401,-74.01 401,-64.5"/>
<polygon fill="black" stroke="black" points="404.5,-64.25 401,-54.25 397.5,-64.25 404.5,-64.25"/>
</g>
</g>
</svg>
