<?xml version="1.0" encoding="UTF-8" standalone="no"?>
<!DOCTYPE svg PUBLIC "-//W3C//DTD SVG 1.1//EN"
 "http://www.w3.org/Graphics/SVG/1.1/DTD/svg11.dtd">
<!-- Generated by graphviz version 2.43.0 (0)
 -->
<!-- Title: Channels Pages: 1 -->
<svg width="708pt" height="298pt"
 viewBox="0.00 0.00 707.50 298.00" xmlns="http://www.w3.org/2000/svg" xmlns:xlink="http://www.w3.org/1999/xlink">
<g id="graph0" class="graph" transform="scale(1 1) rotate(0) translate(4 294)">
<title>Channels</title>
<polygon fill="white" stroke="transparent" points="-4,4 -4,-294 703.5,-294 703.5,4 -4,4"/>
<!-- PTT backend -->
<g id="node1" class="node">
<title>PTT backend</title>
<polygon fill="palegreen" stroke="palegreen" points="100.5,-290 24.5,-290 24.5,-252 100.5,-252 100.5,-290"/>
<text text-anchor="middle" x="62.5" y="-274.8" font-family="Times,serif" font-size="14.00">PTT</text>
<text text-anchor="middle" x="62.5" y="-259.8" font-family="Times,serif" font-size="14.00">backend</text>
</g>
<!-- to_ptt_backend -->
<g id="node6" class="node">
<title>to_ptt_backend</title>
<polygon fill="palegreen" stroke="palegreen" points="125,-216 0,-216 0,-180 125,-180 125,-216"/>
<text text-anchor="middle" x="62.5" y="-194.3" font-family="Times,serif" font-size="14.00">to_ptt_backend</text>
</g>
<!-- PTT backend&#45;&gt;to_ptt_backend -->
<g id="edge1" class="edge">
<title>PTT backend&#45;&gt;to_ptt_backend</title>
<path fill="none" stroke="black" d="M62.5,-241.58C62.5,-232.92 62.5,-223.66 62.5,-216"/>
<polygon fill="black" stroke="black" points="59,-241.72 62.5,-251.72 66,-241.72 59,-241.72"/>
</g>
<!-- MQ server -->
<g id="node2" class="node">
<title>MQ server</title>
<polygon fill="khaki" stroke="khaki" points="230.5,-290 168.5,-290 168.5,-252 230.5,-252 230.5,-290"/>
<text text-anchor="middle" x="199.5" y="-274.8" font-family="Times,serif" font-size="14.00">MQ</text>
<text text-anchor="middle" x="199.5" y="-259.8" font-family="Times,serif" font-size="14.00">server</text>
</g>
<!-- to_mq_server -->
<g id="node7" class="node">
<title>to_mq_server</title>
<polygon fill="khaki" stroke="khaki" points="256,-216 143,-216 143,-180 256,-180 256,-216"/>
<text text-anchor="middle" x="199.5" y="-194.3" font-family="Times,serif" font-size="14.00">to_mq_server</text>
</g>
<!-- MQ server&#45;&gt;to_mq_server -->
<g id="edge2" class="edge">
<title>MQ server&#45;&gt;to_mq_server</title>
<path fill="none" stroke="black" d="M199.5,-241.58C199.5,-232.92 199.5,-223.66 199.5,-216"/>
<polygon fill="black" stroke="black" points="196,-241.72 199.5,-251.72 203,-241.72 196,-241.72"/>
</g>
<!-- system tray -->
<g id="node3" class="node">
<title>system tray</title>
<polygon fill="lightskyblue" stroke="lightskyblue" points="370.5,-290 302.5,-290 302.5,-252 370.5,-252 370.5,-290"/>
<text text-anchor="middle" x="336.5" y="-274.8" font-family="Times,serif" font-size="14.00">system</text>
<text text-anchor="middle" x="336.5" y="-259.8" font-family="Times,serif" font-size="14.00">tray</text>
</g>
<!-- to_system_tray -->
<g id="node8" class="node">
<title>to_system_tray</title>
<polygon fill="lightskyblue" stroke="lightskyblue" points="399,-216 274,-216 274,-180 399,-180 399,-216"/>
<text text-anchor="middle" x="336.5" y="-194.3" font-family="Times,serif" font-size="14.00">to_system_tray</text>
</g>
<!-- system tray&#45;&gt;to_system_tray -->
<g id="edge3" class="edge">
<title>system tray&#45;&gt;to_system_tray</title>
<path fill="none" stroke="black" d="M336.5,-241.58C336.5,-232.92 336.5,-223.66 336.5,-216"/>
<polygon fill="black" stroke="black" points="333,-241.72 336.5,-251.72 340,-241.72 333,-241.72"/>
</g>
<!-- chat window -->
<g id="node4" class="node">
<title>chat window</title>
<polygon fill="sandybrown" stroke="sandybrown" points="518,-290 447,-290 447,-252 518,-252 518,-290"/>
<text text-anchor="middle" x="482.5" y="-274.8" font-family="Times,serif" font-size="14.00">chat</text>
<text text-anchor="middle" x="482.5" y="-259.8" font-family="Times,serif" font-size="14.00">window</text>
</g>
<!-- to_chat_window -->
<g id="node9" class="node">
<title>to_chat_window</title>
<polygon fill="sandybrown" stroke="sandybrown" points="547.5,-216 417.5,-216 417.5,-180 547.5,-180 547.5,-216"/>
<text text-anchor="middle" x="482.5" y="-194.3" font-family="Times,serif" font-size="14.00">to_chat_window</text>
</g>
<!-- chat window&#45;&gt;to_chat_window -->
<g id="edge5" class="edge">
<title>chat window&#45;&gt;to_chat_window</title>
<path fill="none" stroke="black" d="M482.5,-241.58C482.5,-232.92 482.5,-223.66 482.5,-216"/>
<polygon fill="black" stroke="black" points="479,-241.72 482.5,-251.72 486,-241.72 479,-241.72"/>
</g>
<!-- login window -->
<g id="node5" class="node">
<title>login window</title>
<polygon fill="lightpink" stroke="lightpink" points="668,-290 597,-290 597,-252 668,-252 668,-290"/>
<text text-anchor="middle" x="632.5" y="-274.8" font-family="Times,serif" font-size="14.00">login</text>
<text text-anchor="middle" x="632.5" y="-259.8" font-family="Times,serif" font-size="14.00">window</text>
</g>
<!-- to_login_window -->
<g id="node10" class="node">
<title>to_login_window</title>
<polygon fill="lightpink" stroke="lightpink" points="699.5,-216 565.5,-216 565.5,-180 699.5,-180 699.5,-216"/>
<text text-anchor="middle" x="632.5" y="-194.3" font-family="Times,serif" font-size="14.00">to_login_window</text>
</g>
<!-- login window&#45;&gt;to_login_window -->
<g id="edge4" class="edge">
<title>login window&#45;&gt;to_login_window</title>
<path fill="none" stroke="black" d="M632.5,-241.58C632.5,-232.92 632.5,-223.66 632.5,-216"/>
<polygon fill="black" stroke="black" points="629,-241.72 632.5,-251.72 636,-241.72 629,-241.72"/>
</g>
<!-- Message Queue -->
<g id="node11" class="node">
<title>Message Queue</title>
<ellipse fill="lightgray" stroke="black" cx="336.5" cy="-72" rx="72" ry="72"/>
<text text-anchor="middle" x="336.5" y="-68.3" font-family="Times,serif" font-size="14.00">Message Queue</text>
</g>
<!-- to_ptt_backend&#45;&gt;Message Queue -->
<g id="edge6" class="edge">
<title>to_ptt_backend&#45;&gt;Message Queue</title>
<path fill="none" stroke="black" d="M109.46,-175.75C151.33,-156.8 213.34,-128.74 261.98,-106.73"/>
<polygon fill="black" stroke="black" points="107.98,-172.58 100.31,-179.89 110.86,-178.95 107.98,-172.58"/>
<polygon fill="black" stroke="black" points="263.54,-109.86 271.2,-102.55 260.65,-103.48 263.54,-109.86"/>
</g>
<!-- to_mq_server&#45;&gt;Message Queue -->
<g id="edge7" class="edge">
<title>to_mq_server&#45;&gt;Message Queue</title>
<path fill="none" stroke="black" d="M226.09,-172.93C240.33,-160.05 258.48,-143.62 275.94,-127.82"/>
<polygon fill="black" stroke="black" points="223.61,-170.45 218.55,-179.76 228.31,-175.64 223.61,-170.45"/>
<polygon fill="black" stroke="black" points="278.3,-130.4 283.36,-121.1 273.6,-125.21 278.3,-130.4"/>
</g>
<!-- to_system_tray&#45;&gt;Message Queue -->
<g id="edge8" class="edge">
<title>to_system_tray&#45;&gt;Message Queue</title>
<path fill="none" stroke="black" d="M336.5,-169.62C336.5,-164.78 336.5,-159.54 336.5,-154.08"/>
<polygon fill="black" stroke="black" points="333,-169.76 336.5,-179.76 340,-169.76 333,-169.76"/>
<polygon fill="black" stroke="black" points="340,-154.05 336.5,-144.05 333,-154.05 340,-154.05"/>
</g>
<!-- to_chat_window&#45;&gt;Message Queue -->
<g id="edge10" class="edge">
<title>to_chat_window&#45;&gt;Message Queue</title>
<path fill="none" stroke="black" d="M454.39,-173.12C438.51,-159.64 418.01,-142.23 398.57,-125.72"/>
<polygon fill="black" stroke="black" points="452.31,-175.95 462.2,-179.76 456.84,-170.62 452.31,-175.95"/>
<polygon fill="black" stroke="black" points="400.79,-123.01 390.9,-119.2 396.25,-128.34 400.79,-123.01"/>
</g>
<!-- to_login_window&#45;&gt;Message Queue -->
<g id="edge9" class="edge">
<title>to_login_window&#45;&gt;Message Queue</title>
<path fill="none" stroke="black" d="M582.13,-175.9C535.5,-156.37 465.53,-127.05 412.18,-104.7"/>
<polygon fill="black" stroke="black" points="581.08,-179.25 591.65,-179.89 583.78,-172.8 581.08,-179.25"/>
<polygon fill="black" stroke="black" points="413.33,-101.39 402.76,-100.76 410.63,-107.85 413.33,-101.39"/>
</g>
</g>
</svg>
